<svg width="26" height="26" viewBox="0 0 26 26" fill="none" xmlns="http://www.w3.org/2000/svg">
<path d="M19.0183 6.98437C18.5633 6.52927 18.297 5.91919 18.2724 5.27616C18.2479 4.63313 18.467 4.00453 18.8859 3.51608C18.9206 3.47546 18.9386 3.42324 18.9364 3.3699C18.9341 3.31655 18.9118 3.26602 18.8739 3.22843L16.4606 0.812334C16.4207 0.77246 16.3666 0.750061 16.3102 0.750061C16.2538 0.750061 16.1997 0.77246 16.1598 0.812334L12.3131 4.65905C12.1711 4.80092 12.0642 4.97394 12.0008 5.16437C11.9376 5.35521 11.8308 5.52871 11.6889 5.6711C11.547 5.81349 11.3738 5.92086 11.1832 5.98468C10.9927 6.04817 10.8195 6.15507 10.6774 6.29694L0.812273 16.1598C0.772399 16.1997 0.75 16.2538 0.75 16.3102C0.75 16.3666 0.772399 16.4207 0.812273 16.4606L3.22563 18.874C3.26322 18.9119 3.31375 18.9342 3.3671 18.9364C3.42045 18.9387 3.47267 18.9207 3.51329 18.886C4.00163 18.4666 4.63037 18.2471 5.27362 18.2715C5.91688 18.2959 6.52718 18.5624 6.98236 19.0176C7.43754 19.4727 7.704 20.083 7.72839 20.7263C7.75278 21.3696 7.53331 21.9983 7.11391 22.4866C7.07926 22.5273 7.06125 22.5795 7.06348 22.6328C7.06571 22.6862 7.08802 22.7367 7.12594 22.7743L9.5393 25.1876C9.5792 25.2275 9.63329 25.2499 9.68969 25.2499C9.7461 25.2499 9.80019 25.2275 9.84009 25.1876L19.7057 15.3226C19.8476 15.1804 19.9545 15.0072 20.018 14.8167C20.0812 14.6259 20.1879 14.4524 20.3299 14.31C20.4718 14.1676 20.6449 14.0602 20.8356 13.9964C21.026 13.933 21.199 13.8261 21.3409 13.6841L25.1876 9.83741C25.2275 9.79752 25.2499 9.74342 25.2499 9.68702C25.2499 9.63062 25.2275 9.57652 25.1876 9.53663L22.7742 7.12327C22.7366 7.08535 22.6861 7.06304 22.6328 7.06081C22.5794 7.05858 22.5272 7.07659 22.4866 7.11124C21.9988 7.5309 21.3706 7.75097 20.7276 7.72744C20.0845 7.70392 19.4741 7.43854 19.0183 6.98437Z" stroke="white" stroke-miterlimit="10"/>
</svg>
